<?xml version="1.0" encoding="utf-8"?>
<!-- Svg Vector Icons : http://www.onlinewebfonts.com/icon -->
<!DOCTYPE svg PUBLIC "-//W3C//DTD SVG 1.1//EN" "http://www.w3.org/Graphics/SVG/1.1/DTD/svg11.dtd">
<svg version="1.1" xmlns="http://www.w3.org/2000/svg" xmlns:xlink="http://www.w3.org/1999/xlink" x="0px" y="0px" viewBox="0 0 1000 1000" enable-background="new 0 0 1000 1000" xml:space="preserve">
<metadata> Svg Vector Icons : http://www.onlinewebfonts.com/icon </metadata>
<g><g transform="translate(0.000000,225.000000) scale(0.100000,-0.100000)">
<path fill = '#2AD883' d="M5019.7,1605.9c-185-15.7-492-74.8-688.8-133.8C3945.2,1361.9,3063.6,956.5,2977,850.2c-27.6-35.4-70.9-66.9-90.5-66.9c-137.8,0-917-755.7-1243.7-1204.3c-185-251.9-468.4-795-539.2-1027.2l-23.6-90.5h4309.7c3424.1,0,4313.6,11.8,4313.6,51.2c0,23.6-35.4,141.7-78.7,259.8C9246.7-236.1,8432,653.4,7440.2,1149.3C6731.7,1503.5,5822.6,1676.7,5019.7,1605.9z"/>
<path fill = '#2AD883' d="M2953.4,1224.1c-661.2-275.5-1149.2-614-1704.2-1184.7C501.5-732,100-1708,100-2739.2c0-1582.2,956.4-3034.5,2507.1-3813.8c547.1-271.5,1054.8-448.7,617.9-212.5c-413.3,224.3-991.8,661.2-1287,976.1c-531.3,562.8-885.5,1184.6-1109.9,1948.2c-129.9,429-177.1,1287-102.3,1735.7c118.1,692.7,409.3,1385.4,802.9,1904.9c251.9,330.6,657.3,747.8,932.8,956.4c118.1,90.5,224.3,177.1,236.1,188.9c11.8,11.8,181,114.1,373.9,228.3C3488.7,1409.1,3445.4,1424.8,2953.4,1224.1z"/>
<path fill = '#2AD883' d="M985.5-1991.4c-11.8-31.5-27.6-86.6-39.4-118.1c-15.7-51.2,495.9-59,4447.4-59c4274.2,0,4467.1,3.9,4467.1,70.8c0,39.4-19.7,90.5-47.2,118.1c-35.4,35.4-1074.5,47.2-4427.7,47.2C1524.7-1932.4,1001.3-1940.2,985.5-1991.4z"/>
<path fill = '#2AD883' d="M887.1-2758.9v-118.1h4506.4H9900v118.1v118.1H5393.6H887.1V-2758.9z"/>
<path fill = '#2AD883' d="M942.2-3372.9c11.8-35.4,23.6-86.6,23.6-118.1c0-47.2,621.8-55.1,4439.5-47.2l4435.6,11.8l11.8,110.2l11.8,106.3h-4471C1328-3309.9,918.6-3313.8,942.2-3372.9z"/>
<path fill = '#2AD883' d="M1083.9-3998.6c0-11.8,35.4-90.5,78.7-177.1c43.3-86.6,78.7-177.1,78.7-200.7c0-70.8,373.9-684.8,570.7-940.6c653.3-854.1,1814.4-1538.9,2963.6-1755.4c562.8-106.2,1436.6-35.4,2054.5,169.3c307,98.4,913.1,405.4,1220.1,617.9c680.9,468.4,1330.3,1298.8,1578.2,2026.9c43.3,118.1,74.8,228.3,74.8,248c0,15.7-1940.3,31.5-4309.6,31.5S1083.9-3986.8,1083.9-3998.6z"/></g></g>
</svg>